<svg width="29" height="29" viewBox="0 0 29 29" fill="none" xmlns="http://www.w3.org/2000/svg">
<g clip-path="url(#clip0_5286_127)">
<path d="M21.0532 29H7.94685C3.56496 29 0 25.435 0 21.0532V7.94685C0 3.56496 3.56496 0 7.94685 0H21.0532C25.435 0 29 3.56496 29 7.94685V21.0532C29 25.435 25.4351 29 21.0532 29ZM7.94685 2.26562C4.81423 2.26562 2.26562 4.81423 2.26562 7.94685V21.0532C2.26562 24.1858 4.81423 26.7344 7.94685 26.7344H21.0532C24.1858 26.7344 26.7344 24.1858 26.7344 21.0532V7.94685C26.7344 4.81423 24.1858 2.26562 21.0532 2.26562H7.94685Z" fill="#C2410C"/>
<path d="M22.3615 22.9019C22.1865 22.9019 22.0102 22.8614 21.8469 22.778L14.5 19.0285L7.15318 22.778C6.71705 23.0006 6.18734 22.9178 5.83997 22.5728C5.49259 22.2278 5.40615 21.6987 5.62569 21.2611L13.4875 5.59007C13.6797 5.20701 14.0715 4.96521 14.5 4.96521C14.9285 4.96521 15.3204 5.20701 15.5126 5.59007L23.3744 21.2611C23.594 21.6987 23.5075 22.2278 23.1601 22.5728C22.9428 22.7887 22.654 22.9019 22.3615 22.9019ZM14.5 16.6239C14.6766 16.6239 14.8532 16.6652 15.015 16.7477L19.8007 19.1901L14.5 8.62431L9.19938 19.1901L13.9851 16.7477C14.1468 16.6651 14.3234 16.6239 14.5 16.6239Z" fill="#C2410C"/>
</g>
<defs>
<clipPath id="clip0_5286_127">
<rect width="29" height="29" fill="white"/>
</clipPath>
</defs>
</svg>
