<svg width="29" height="29" viewBox="0 0 29 29" fill="none" xmlns="http://www.w3.org/2000/svg">
<g clip-path="url(#clip0_5286_116)">
<path d="M28.2512 11.9408L22.9922 2.63645C22.5666 1.88364 21.7651 1.41602 20.9004 1.41602C20.0357 1.41602 19.2341 1.88364 18.8085 2.63651L17.9669 4.12565C17.5601 3.92888 17.1396 3.76371 16.709 3.63072V2.66211C16.709 1.19047 15.5187 0 14.0469 0C12.579 0 11.3848 1.19421 11.3848 2.66211V3.63021C7.7144 4.76818 5.04102 8.19488 5.04102 12.2344V18.2083C5.04102 19.5543 4.37283 20.8349 3.22676 21.5984C2.67196 21.9677 2.32227 22.5975 2.32227 23.2884C2.32227 24.4077 3.23293 25.3184 4.35227 25.3184H9.64403C10.0196 27.4085 11.8502 29 14.0469 29C16.2435 29 18.0741 27.4085 18.4497 25.3184H23.7415C24.8608 25.3184 25.7715 24.4077 25.7715 23.2884C25.7715 22.61 25.4323 21.9747 24.8674 21.5986C23.7311 20.8414 23.0527 19.574 23.0527 18.2083V15.3496H26.2623C27.522 15.3496 28.5469 14.3248 28.5469 13.065C28.5469 12.6719 28.4446 12.2831 28.2512 11.9408ZM13.084 2.66211C13.084 2.13116 13.5159 1.69922 14.0469 1.69922C14.5794 1.69922 15.0098 2.12952 15.0098 2.66211V3.2804C14.3753 3.21249 13.739 3.21011 13.084 3.28006V2.66211ZM14.0469 27.3008C12.7921 27.3008 11.7296 26.4635 11.3875 25.3184H16.7062C16.3642 26.4635 15.3017 27.3008 14.0469 27.3008ZM23.9255 23.0129C24.0192 23.0754 24.0723 23.1792 24.0723 23.2884C24.0723 23.4707 23.9239 23.6191 23.7415 23.6191H4.35227C4.10027 23.6191 3.94451 23.349 4.05983 23.1328C4.08588 23.0842 4.12344 23.0428 4.16852 23.0127C5.7693 21.9465 6.74023 20.1441 6.74023 18.2083V12.2344C6.74023 8.20547 10.018 4.92773 14.0469 4.92773C15.1175 4.92773 16.1683 5.16194 17.1286 5.60878L13.5496 11.9408C13.3562 12.2831 13.2539 12.6718 13.2539 13.065C13.2539 14.3248 14.2788 15.3496 15.5385 15.3496H21.3535V18.2083C21.3535 20.1436 22.3149 21.9396 23.9255 23.0129ZM26.2623 13.6504H15.5385C15.0906 13.6504 14.8094 13.1655 15.0289 12.7769L20.2878 3.47264C20.5568 2.99708 21.2439 2.99663 21.513 3.47258L26.7719 12.7769C26.9914 13.1654 26.7102 13.6504 26.2623 13.6504Z" fill="#2851D3"/>
<path d="M20.9004 9.45898C21.3696 9.45898 21.75 9.07859 21.75 8.60938V6.34375C21.75 5.87454 21.3696 5.49414 20.9004 5.49414C20.4312 5.49414 20.0508 5.87454 20.0508 6.34375V8.60938C20.0508 9.07859 20.4312 9.45898 20.9004 9.45898Z" fill="#2851D3"/>
<path d="M20.9004 12.1781C21.3698 12.1781 21.7503 11.7975 21.7503 11.3282C21.7503 10.8588 21.3698 10.4783 20.9004 10.4783C20.431 10.4783 20.0505 10.8588 20.0505 11.3282C20.0505 11.7975 20.431 12.1781 20.9004 12.1781Z" fill="#2851D3"/>
<path d="M5.83398 3.68164C4.61593 3.68164 3.625 4.67257 3.625 5.89062C3.625 6.35984 4.0054 6.74023 4.47461 6.74023C4.94382 6.74023 5.32422 6.35984 5.32422 5.89062C5.32422 5.60952 5.55288 5.38086 5.83398 5.38086C6.3032 5.38086 6.68359 5.00046 6.68359 4.53125C6.68359 4.06204 6.3032 3.68164 5.83398 3.68164Z" fill="#2851D3"/>
<path d="M5.83398 2.20898C6.3032 2.20898 6.68359 1.82859 6.68359 1.35938C6.68359 0.890164 6.3032 0.509766 5.83398 0.509766C2.86698 0.509766 0.453125 2.92362 0.453125 5.89062C0.453125 6.35984 0.833523 6.74023 1.30273 6.74023C1.77195 6.74023 2.15234 6.35984 2.15234 5.89062C2.15234 3.86057 3.80393 2.20898 5.83398 2.20898Z" fill="#2851D3"/>
</g>
<defs>
<clipPath id="clip0_5286_116">
<rect width="29" height="29" fill="white"/>
</clipPath>
</defs>
</svg>
